<mxfile host="65bd71144e" modified="2020-10-29T17:02:52.483Z" agent="5.0 (Macintosh; Intel Mac OS X 10_15_7) AppleWebKit/537.36 (KHTML, like Gecko) Code/1.50.1 Chrome/83.0.4103.122 Electron/9.2.1 Safari/537.36" etag="agXSEW4o3hW_kCxvy5dl" version="13.6.5">
    <diagram id="diagramid" name="Diagram">
        <mxGraphModel dx="1870" dy="493" grid="1" gridSize="10" guides="1" tooltips="1" connect="1" arrows="1" fold="1" page="1" pageScale="1" pageWidth="850" pageHeight="1100" math="0" shadow="0">
            <root>
                <mxCell id="0"/>
                <mxCell id="1" parent="0"/>
                <mxCell id="2" value="ApiF70053CD" style="outlineConnect=0;fontColor=#B3B3B3;gradientColor=#F34482;gradientDirection=north;fillColor=#BC1356;strokeColor=#ffffff;dashed=0;verticalLabelPosition=bottom;verticalAlign=top;align=center;html=1;fontSize=12;fontStyle=0;aspect=fixed;shape=mxgraph.aws4.resourceIcon;resIcon=mxgraph.aws4.appsync;" vertex="1" parent="1">
                    <mxGeometry x="250" y="450" width="50" height="50" as="geometry"/>
                </mxCell>
                <mxCell id="3" value="ApiSchema510EECD7" style="outlineConnect=0;fontColor=#B3B3B3;gradientColor=#F34482;gradientDirection=north;fillColor=#BC1356;strokeColor=#ffffff;dashed=0;verticalLabelPosition=bottom;verticalAlign=top;align=center;html=1;fontSize=12;fontStyle=0;aspect=fixed;shape=mxgraph.aws4.resourceIcon;resIcon=mxgraph.aws4.appsync;" vertex="1" parent="1">
                    <mxGeometry y="200" width="50" height="50" as="geometry"/>
                </mxCell>
                <mxCell id="4" value="ApiDefaultApiKeyF991C37B" style="outlineConnect=0;fontColor=#B3B3B3;gradientColor=#F34482;gradientDirection=north;fillColor=#BC1356;strokeColor=#ffffff;dashed=0;verticalLabelPosition=bottom;verticalAlign=top;align=center;html=1;fontSize=12;fontStyle=0;aspect=fixed;shape=mxgraph.aws4.resourceIcon;resIcon=mxgraph.aws4.appsync;" vertex="1" parent="1">
                    <mxGeometry y="300" width="50" height="50" as="geometry"/>
                </mxCell>
                <mxCell id="5" value="ApilambdaDatasourceServiceRole2CA75790" style="outlineConnect=0;fontColor=#B3B3B3;gradientColor=#F54749;gradientDirection=north;fillColor=#C7131F;strokeColor=#ffffff;dashed=0;verticalLabelPosition=bottom;verticalAlign=top;align=center;html=1;fontSize=12;fontStyle=0;aspect=fixed;shape=mxgraph.aws4.resourceIcon;resIcon=mxgraph.aws4.role;" vertex="1" parent="1">
                    <mxGeometry x="250" y="50" width="50" height="50" as="geometry"/>
                </mxCell>
                <mxCell id="6" value="ApilambdaDatasourceServiceRoleDefaultPolicy3A97E34D" style="outlineConnect=0;fontColor=#B3B3B3;gradientColor=#F54749;gradientDirection=north;fillColor=#C7131F;strokeColor=#ffffff;dashed=0;verticalLabelPosition=bottom;verticalAlign=top;align=center;html=1;fontSize=12;fontStyle=0;aspect=fixed;shape=mxgraph.aws4.resourceIcon;resIcon=mxgraph.aws4.identity_and_access_management;" vertex="1" parent="1">
                    <mxGeometry width="50" height="50" as="geometry"/>
                </mxCell>
                <mxCell id="7" value="ApilambdaDatasource2C776EE2" style="outlineConnect=0;fontColor=#B3B3B3;gradientColor=#F34482;gradientDirection=north;fillColor=#BC1356;strokeColor=#ffffff;dashed=0;verticalLabelPosition=bottom;verticalAlign=top;align=center;html=1;fontSize=12;fontStyle=0;aspect=fixed;shape=mxgraph.aws4.resourceIcon;resIcon=mxgraph.aws4.appsync;" parent="1" vertex="1">
                    <mxGeometry y="100" width="50" height="50" as="geometry"/>
                </mxCell>
                <mxCell id="8" value="ApilambdaDatasourceQuerygetNoteByIdResolverE0029E24" style="outlineConnect=0;fontColor=#B3B3B3;gradientColor=#F34482;gradientDirection=north;fillColor=#BC1356;strokeColor=#ffffff;dashed=0;verticalLabelPosition=bottom;verticalAlign=top;align=center;html=1;fontSize=12;fontStyle=0;aspect=fixed;shape=mxgraph.aws4.resourceIcon;resIcon=mxgraph.aws4.appsync;" parent="1" vertex="1">
                    <mxGeometry y="400" width="50" height="50" as="geometry"/>
                </mxCell>
                <mxCell id="9" value="ApilambdaDatasourceQuerylistNotesResolverA04323FA" style="outlineConnect=0;fontColor=#B3B3B3;gradientColor=#F34482;gradientDirection=north;fillColor=#BC1356;strokeColor=#ffffff;dashed=0;verticalLabelPosition=bottom;verticalAlign=top;align=center;html=1;fontSize=12;fontStyle=0;aspect=fixed;shape=mxgraph.aws4.resourceIcon;resIcon=mxgraph.aws4.appsync;" parent="1" vertex="1">
                    <mxGeometry y="500" width="50" height="50" as="geometry"/>
                </mxCell>
                <mxCell id="10" value="ApilambdaDatasourceMutationcreateNoteResolver9158206A" style="outlineConnect=0;fontColor=#B3B3B3;gradientColor=#F34482;gradientDirection=north;fillColor=#BC1356;strokeColor=#ffffff;dashed=0;verticalLabelPosition=bottom;verticalAlign=top;align=center;html=1;fontSize=12;fontStyle=0;aspect=fixed;shape=mxgraph.aws4.resourceIcon;resIcon=mxgraph.aws4.appsync;" parent="1" vertex="1">
                    <mxGeometry y="600" width="50" height="50" as="geometry"/>
                </mxCell>
                <mxCell id="11" value="ApilambdaDatasourceMutationdeleteNoteResolver16050EFC" style="outlineConnect=0;fontColor=#B3B3B3;gradientColor=#F34482;gradientDirection=north;fillColor=#BC1356;strokeColor=#ffffff;dashed=0;verticalLabelPosition=bottom;verticalAlign=top;align=center;html=1;fontSize=12;fontStyle=0;aspect=fixed;shape=mxgraph.aws4.resourceIcon;resIcon=mxgraph.aws4.appsync;" parent="1" vertex="1">
                    <mxGeometry y="700" width="50" height="50" as="geometry"/>
                </mxCell>
                <mxCell id="12" value="ApilambdaDatasourceMutationupdateNoteResolverA2113FA0" style="outlineConnect=0;fontColor=#B3B3B3;gradientColor=#F34482;gradientDirection=north;fillColor=#BC1356;strokeColor=#ffffff;dashed=0;verticalLabelPosition=bottom;verticalAlign=top;align=center;html=1;fontSize=12;fontStyle=0;aspect=fixed;shape=mxgraph.aws4.resourceIcon;resIcon=mxgraph.aws4.appsync;" parent="1" vertex="1">
                    <mxGeometry y="800" width="50" height="50" as="geometry"/>
                </mxCell>
                <mxCell id="13" value="AppSyncNotesHandlerServiceRole34415D7F" style="outlineConnect=0;fontColor=#B3B3B3;gradientColor=#F54749;gradientDirection=north;fillColor=#C7131F;strokeColor=#ffffff;dashed=0;verticalLabelPosition=bottom;verticalAlign=top;align=center;html=1;fontSize=12;fontStyle=0;aspect=fixed;shape=mxgraph.aws4.resourceIcon;resIcon=mxgraph.aws4.role;" vertex="1" parent="1">
                    <mxGeometry x="500" y="450" width="50" height="50" as="geometry"/>
                </mxCell>
                <mxCell id="14" value="AppSyncNotesHandlerServiceRoleDefaultPolicy12C70C4F" style="outlineConnect=0;fontColor=#B3B3B3;gradientColor=#F54749;gradientDirection=north;fillColor=#C7131F;strokeColor=#ffffff;dashed=0;verticalLabelPosition=bottom;verticalAlign=top;align=center;html=1;fontSize=12;fontStyle=0;aspect=fixed;shape=mxgraph.aws4.resourceIcon;resIcon=mxgraph.aws4.identity_and_access_management;" vertex="1" parent="1">
                    <mxGeometry x="250" y="550" width="50" height="50" as="geometry"/>
                </mxCell>
                <mxCell id="15" value="AppSyncNotesHandler4B870A76" style="outlineConnect=0;fontColor=#B3B3B3;gradientColor=#F78E04;gradientDirection=north;fillColor=#D05C17;strokeColor=#ffffff;dashed=0;verticalLabelPosition=bottom;verticalAlign=top;align=center;html=1;fontSize=12;fontStyle=0;aspect=fixed;shape=mxgraph.aws4.resourceIcon;resIcon=mxgraph.aws4.lambda;" parent="1" vertex="1">
                    <mxGeometry x="250" y="225" width="50" height="50" as="geometry"/>
                </mxCell>
                <mxCell id="16" value="CDKNotesTable254A7FD1" style="outlineConnect=0;fontColor=#B3B3B3;gradientColor=#4D72F3;gradientDirection=north;fillColor=#3334B9;strokeColor=#ffffff;dashed=0;verticalLabelPosition=bottom;verticalAlign=top;align=center;html=1;fontSize=12;fontStyle=0;aspect=fixed;shape=mxgraph.aws4.resourceIcon;resIcon=mxgraph.aws4.dynamodb;" parent="1" vertex="1">
                    <mxGeometry x="500" y="350" width="50" height="50" as="geometry"/>
                </mxCell>
                <mxCell id="ApiF70053CD|ApiSchema510EECD7" value="ApiId" style="edgeStyle=orthogonalEdgeStyle;rounded=1;orthogonalLoop=1;jettySize=auto;html=1;labelBackgroundColor=none;fontColor=#EA6B66;noEdgeStyle=1;orthogonal=1;" edge="1" parent="1" source="3" target="2">
                    <mxGeometry relative="1" as="geometry">
                        <Array as="points">
                            <mxPoint x="62" y="225"/>
                            <mxPoint x="236" y="459.375"/>
                        </Array>
                    </mxGeometry>
                </mxCell>
                <mxCell id="ApiF70053CD|ApiDefaultApiKeyF991C37B" value="ApiId" style="edgeStyle=orthogonalEdgeStyle;rounded=1;orthogonalLoop=1;jettySize=auto;html=1;labelBackgroundColor=none;fontColor=#EA6B66;noEdgeStyle=1;orthogonal=1;" edge="1" parent="1" source="4" target="2">
                    <mxGeometry relative="1" as="geometry">
                        <Array as="points">
                            <mxPoint x="62" y="325"/>
                            <mxPoint x="234" y="465.625"/>
                        </Array>
                    </mxGeometry>
                </mxCell>
                <mxCell id="ApilambdaDatasourceServiceRole2CA75790|ApilambdaDatasourceServiceRoleDefaultPolicy3A97E34D" value="Roles" style="edgeStyle=orthogonalEdgeStyle;rounded=1;orthogonalLoop=1;jettySize=auto;html=1;labelBackgroundColor=none;fontColor=#EA6B66;noEdgeStyle=1;orthogonal=1;" edge="1" parent="1" source="6" target="5">
                    <mxGeometry relative="1" as="geometry">
                        <Array as="points">
                            <mxPoint x="62" y="15"/>
                            <mxPoint x="238" y="65"/>
                        </Array>
                    </mxGeometry>
                </mxCell>
                <mxCell id="AppSyncNotesHandler4B870A76|ApilambdaDatasourceServiceRoleDefaultPolicy3A97E34D" value="Resource" style="edgeStyle=orthogonalEdgeStyle;rounded=1;orthogonalLoop=1;jettySize=auto;html=1;labelBackgroundColor=none;fontColor=#EA6B66;noEdgeStyle=1;orthogonal=1;" edge="1" parent="1" source="6" target="15">
                    <mxGeometry relative="1" as="geometry">
                        <Array as="points">
                            <mxPoint x="62" y="35"/>
                            <mxPoint x="238" y="240"/>
                        </Array>
                    </mxGeometry>
                </mxCell>
                <mxCell id="ApiF70053CD|ApilambdaDatasource2C776EE2" value="ApiId" style="edgeStyle=orthogonalEdgeStyle;rounded=1;orthogonalLoop=1;jettySize=auto;html=1;labelBackgroundColor=none;fontColor=#EA6B66;noEdgeStyle=1;orthogonal=1;" edge="1" parent="1" source="7" target="2">
                    <mxGeometry relative="1" as="geometry">
                        <Array as="points">
                            <mxPoint x="62" y="138.33333333333334"/>
                            <mxPoint x="238" y="453.125"/>
                        </Array>
                    </mxGeometry>
                </mxCell>
                <mxCell id="AppSyncNotesHandler4B870A76|ApilambdaDatasource2C776EE2" value="LambdaFunctionArn" style="edgeStyle=orthogonalEdgeStyle;rounded=1;orthogonalLoop=1;jettySize=auto;html=1;labelBackgroundColor=none;fontColor=#EA6B66;noEdgeStyle=1;orthogonal=1;" parent="1" source="7" target="15" edge="1">
                    <mxGeometry relative="1" as="geometry">
                        <Array as="points">
                            <mxPoint x="64" y="125"/>
                            <mxPoint x="238" y="260"/>
                        </Array>
                    </mxGeometry>
                </mxCell>
                <mxCell id="ApilambdaDatasourceServiceRole2CA75790|ApilambdaDatasource2C776EE2" value="ServiceRoleArn" style="edgeStyle=orthogonalEdgeStyle;rounded=1;orthogonalLoop=1;jettySize=auto;html=1;labelBackgroundColor=none;fontColor=#EA6B66;noEdgeStyle=1;orthogonal=1;" edge="1" parent="1" source="7" target="5">
                    <mxGeometry relative="1" as="geometry">
                        <Array as="points">
                            <mxPoint x="62" y="111.66666666666667"/>
                            <mxPoint x="238" y="85"/>
                        </Array>
                    </mxGeometry>
                </mxCell>
                <mxCell id="ApiF70053CD|ApilambdaDatasourceQuerygetNoteByIdResolverE0029E24" value="ApiId" style="edgeStyle=orthogonalEdgeStyle;rounded=1;orthogonalLoop=1;jettySize=auto;html=1;labelBackgroundColor=none;fontColor=#EA6B66;noEdgeStyle=1;orthogonal=1;" edge="1" parent="1" source="8" target="2">
                    <mxGeometry relative="1" as="geometry">
                        <Array as="points">
                            <mxPoint x="62" y="425"/>
                            <mxPoint x="232" y="471.875"/>
                        </Array>
                    </mxGeometry>
                </mxCell>
                <mxCell id="ApiF70053CD|ApilambdaDatasourceQuerylistNotesResolverA04323FA" value="ApiId" style="edgeStyle=orthogonalEdgeStyle;rounded=1;orthogonalLoop=1;jettySize=auto;html=1;labelBackgroundColor=none;fontColor=#EA6B66;noEdgeStyle=1;orthogonal=1;" edge="1" parent="1" source="9" target="2">
                    <mxGeometry relative="1" as="geometry">
                        <Array as="points">
                            <mxPoint x="62" y="525"/>
                            <mxPoint x="232" y="478.125"/>
                        </Array>
                    </mxGeometry>
                </mxCell>
                <mxCell id="ApiF70053CD|ApilambdaDatasourceMutationcreateNoteResolver9158206A" value="ApiId" style="edgeStyle=orthogonalEdgeStyle;rounded=1;orthogonalLoop=1;jettySize=auto;html=1;labelBackgroundColor=none;fontColor=#EA6B66;noEdgeStyle=1;orthogonal=1;" edge="1" parent="1" source="10" target="2">
                    <mxGeometry relative="1" as="geometry">
                        <Array as="points">
                            <mxPoint x="62" y="625"/>
                            <mxPoint x="234" y="484.375"/>
                        </Array>
                    </mxGeometry>
                </mxCell>
                <mxCell id="ApiF70053CD|ApilambdaDatasourceMutationdeleteNoteResolver16050EFC" value="ApiId" style="edgeStyle=orthogonalEdgeStyle;rounded=1;orthogonalLoop=1;jettySize=auto;html=1;labelBackgroundColor=none;fontColor=#EA6B66;noEdgeStyle=1;orthogonal=1;" edge="1" parent="1" source="11" target="2">
                    <mxGeometry relative="1" as="geometry">
                        <Array as="points">
                            <mxPoint x="62" y="725"/>
                            <mxPoint x="236" y="490.625"/>
                        </Array>
                    </mxGeometry>
                </mxCell>
                <mxCell id="ApiF70053CD|ApilambdaDatasourceMutationupdateNoteResolverA2113FA0" value="ApiId" style="edgeStyle=orthogonalEdgeStyle;rounded=1;orthogonalLoop=1;jettySize=auto;html=1;labelBackgroundColor=none;fontColor=#EA6B66;noEdgeStyle=1;orthogonal=1;" edge="1" parent="1" source="12" target="2">
                    <mxGeometry relative="1" as="geometry">
                        <Array as="points">
                            <mxPoint x="62" y="825"/>
                            <mxPoint x="238" y="496.875"/>
                        </Array>
                    </mxGeometry>
                </mxCell>
                <mxCell id="AppSyncNotesHandlerServiceRole34415D7F|AppSyncNotesHandlerServiceRoleDefaultPolicy12C70C4F" value="Roles" style="edgeStyle=orthogonalEdgeStyle;rounded=1;orthogonalLoop=1;jettySize=auto;html=1;labelBackgroundColor=none;fontColor=#EA6B66;noEdgeStyle=1;orthogonal=1;" edge="1" parent="1" source="14" target="13">
                    <mxGeometry relative="1" as="geometry">
                        <Array as="points">
                            <mxPoint x="312" y="585"/>
                            <mxPoint x="488" y="485"/>
                        </Array>
                    </mxGeometry>
                </mxCell>
                <mxCell id="CDKNotesTable254A7FD1|AppSyncNotesHandlerServiceRoleDefaultPolicy12C70C4F" value="Resource" style="edgeStyle=orthogonalEdgeStyle;rounded=1;orthogonalLoop=1;jettySize=auto;html=1;labelBackgroundColor=none;fontColor=#EA6B66;noEdgeStyle=1;orthogonal=1;" edge="1" parent="1" source="14" target="16">
                    <mxGeometry relative="1" as="geometry">
                        <Array as="points">
                            <mxPoint x="312" y="565"/>
                            <mxPoint x="488" y="385"/>
                        </Array>
                    </mxGeometry>
                </mxCell>
                <mxCell id="CDKNotesTable254A7FD1|AppSyncNotesHandler4B870A76" value="Variable" style="edgeStyle=orthogonalEdgeStyle;rounded=1;orthogonalLoop=1;jettySize=auto;html=1;labelBackgroundColor=none;fontColor=#EA6B66;noEdgeStyle=1;orthogonal=1;" parent="1" source="15" target="16" edge="1">
                    <mxGeometry relative="1" as="geometry">
                        <Array as="points">
                            <mxPoint x="312" y="240"/>
                            <mxPoint x="488" y="365"/>
                        </Array>
                    </mxGeometry>
                </mxCell>
                <mxCell id="AppSyncNotesHandlerServiceRole34415D7F|AppSyncNotesHandler4B870A76" value="Role" style="edgeStyle=orthogonalEdgeStyle;rounded=1;orthogonalLoop=1;jettySize=auto;html=1;labelBackgroundColor=none;fontColor=#EA6B66;noEdgeStyle=1;orthogonal=1;" edge="1" parent="1" source="15" target="13">
                    <mxGeometry relative="1" as="geometry">
                        <Array as="points">
                            <mxPoint x="312" y="260"/>
                            <mxPoint x="488" y="465"/>
                        </Array>
                    </mxGeometry>
                </mxCell>
            </root>
        </mxGraphModel>
    </diagram>
</mxfile>